<svg id="Group_3465" data-name="Group 3465" xmlns="http://www.w3.org/2000/svg" width="86.497" height="32.761" viewBox="0 0 86.497 32.761">
  <path id="Path_4815" data-name="Path 4815" d="M56.319,32.761h-26.7c-.091-.069-.2-.034-.294-.034q-12.061,0-24.121,0a5.914,5.914,0,0,1-1.094-.1A4.976,4.976,0,0,1,0,27.7Q0,16.362,0,5.029A5.151,5.151,0,0,1,.108,3.936,5.02,5.02,0,0,1,5.01.008Q43.2-.006,81.386,0a5.286,5.286,0,0,1,1.141.1,4.839,4.839,0,0,1,3.714,3.115A9.808,9.808,0,0,1,86.5,4.226V28.49a.5.5,0,0,0-.042.106,4.67,4.67,0,0,1-3.07,3.785,5.372,5.372,0,0,1-2.086.345q-12.342,0-24.685,0C56.515,32.727,56.41,32.692,56.319,32.761Zm-26.7-16.377q0-7.79,0-15.58c0-.357.053-.32-.329-.32H5.351c-.234,0-.468.011-.7.031A4.525,4.525,0,0,0,.492,4.992Q.509,16.361.5,27.729a4.217,4.217,0,0,0,.246,1.513,4.649,4.649,0,0,0,4.364,3q12.108,0,24.215.007c.257,0,.3-.079.3-.311Q29.609,24.162,29.614,16.383Zm9.025,5.07.117-.089a1.31,1.31,0,0,0,.453-1.62,1.491,1.491,0,0,0-1.37-.868c-.9-.068-1.8-.017-2.7-.03-.146,0-.183.048-.182.188q.006,2.556,0,5.113c0,.17.069.189.207.188.43-.006.86,0,1.29,0a10.507,10.507,0,0,0,1.8-.068,1.451,1.451,0,0,0,1.3-1.922A1.4,1.4,0,0,0,38.64,21.454Zm17.351.664-.049.012c-.689-.908-1.4-1.8-2.058-2.73a.984.984,0,0,0-1.068-.534,1.2,1.2,0,0,1-.328,0c-.121-.01-.161.032-.161.157q.006,2.569,0,5.139c0,.132.052.155.166.152.274-.006.548-.016.821,0,.2.013.23-.064.228-.239-.007-.954,0-1.908,0-2.863a.375.375,0,0,1,.039-.252c.688.9,1.367,1.788,2.042,2.677.525.692.523.693,1.388.673a.139.139,0,0,1,.023,0c.137.02.17-.046.17-.174q0-2.546,0-5.092c0-.149-.052-.185-.19-.181-.274.009-.548.013-.821,0-.17-.009-.206.05-.2.211.007.915,0,1.83,0,2.745Zm-.482-6.675c-.069-.108-.112-.181-.159-.25q-.528-.773-1.058-1.545c-.06-.087-.12-.146.037-.219A1.715,1.715,0,0,0,55.3,11.39,1.706,1.706,0,0,0,53.623,10c-.891-.043-1.783-.011-2.674-.023-.135,0-.171.046-.171.176q.005,2.558,0,5.115c0,.152.052.183.189.178.281-.009.563-.012.844,0,.157.007.2-.046.194-.2-.009-.461,0-.923-.006-1.384,0-.121.032-.167.158-.161a4.77,4.77,0,0,0,.563,0,.3.3,0,0,1,.3.158c.313.485.639.962.957,1.444a.235.235,0,0,0,.218.14C54.618,15.438,55.04,15.443,55.508,15.443Zm5.269-2.73c0,.844.005,1.689,0,2.534,0,.179.051.225.224.22.7-.019,1.406,0,2.11-.02a2.7,2.7,0,0,0,2.707-2.591,2.653,2.653,0,0,0-2.551-2.848c-.754-.058-1.515-.017-2.273-.033-.185,0-.217.061-.215.228C60.782,11.039,60.777,11.876,60.777,12.713ZM78,12.71c0,.852,0,1.7,0,2.557,0,.152.04.2.2.2.711-.017,1.422,0,2.133-.02a2.7,2.7,0,0,0,2.71-2.587,2.653,2.653,0,0,0-2.548-2.851c-.754-.059-1.515-.017-2.273-.033-.18,0-.221.053-.219.225C78.006,11.036,78,11.873,78,12.71Zm-22.011,0c0,.852,0,1.7,0,2.556,0,.121,0,.2.166.2q1.923-.009,3.846,0c.137,0,.173-.052.168-.18a6.091,6.091,0,0,1,0-.68c.015-.191-.039-.251-.239-.248-.836.012-1.673,0-2.509.009-.166,0-.241-.028-.227-.214a4.867,4.867,0,0,0,0-.7c-.013-.184.056-.219.225-.216.711.009,1.423,0,2.134.009.192,0,.242-.059.229-.238a4.368,4.368,0,0,1,0-.633c.014-.184-.056-.22-.226-.218-.711.009-1.423,0-2.134.009-.192,0-.241-.059-.228-.237a3.881,3.881,0,0,0,0-.609c-.018-.2.054-.245.247-.243.828.011,1.657,0,2.486.008.153,0,.2-.04.2-.2a6.27,6.27,0,0,1,0-.7c.01-.167-.05-.209-.211-.208q-1.853.009-3.705,0c-.176,0-.223.047-.221.223C56,11.033,55.99,11.87,55.99,12.706Zm17.224,0c0,.852,0,1.7,0,2.556,0,.15.039.2.2.2q1.9-.009,3.8,0c.138,0,.2-.034.189-.183a6.012,6.012,0,0,1,0-.7c.012-.177-.044-.222-.219-.22-.852.01-1.7,0-2.556.007-.15,0-.208-.036-.2-.194a6.315,6.315,0,0,0,0-.7c-.011-.178.036-.241.228-.237.719.012,1.438,0,2.157.008.148,0,.211-.032.2-.193a5.4,5.4,0,0,1,0-.656c.011-.179-.037-.242-.229-.238-.719.012-1.438,0-2.157.008-.147,0-.211-.031-.2-.192a4.529,4.529,0,0,0,0-.656c-.018-.205.063-.241.25-.239.821.01,1.642,0,2.462.009.181,0,.227-.052.216-.224a6.339,6.339,0,0,1,0-.68c.006-.145-.028-.205-.19-.2q-1.876.009-3.752,0c-.159,0-.194.054-.193.2C73.217,11.021,73.214,11.866,73.214,12.71ZM60.122,24.333c.633,0,1.266,0,1.9,0,.158,0,.225-.036.214-.207a5.15,5.15,0,0,1,0-.679c.012-.175-.041-.223-.219-.221-.852.01-1.7,0-2.556.007-.148,0-.209-.034-.2-.193a5.325,5.325,0,0,0,0-.68c-.014-.2.033-.268.251-.263.7.016,1.391,0,2.087.01.188,0,.27-.036.251-.24a3.363,3.363,0,0,1,0-.586c.017-.2-.034-.269-.252-.264-.7.016-1.407,0-2.11.01-.167,0-.241-.03-.227-.215a4.239,4.239,0,0,0,0-.656c-.014-.185.058-.217.226-.216.829.008,1.657,0,2.486.008.18,0,.228-.05.217-.223a6.3,6.3,0,0,1,0-.68c.006-.144-.026-.206-.189-.205q-1.876.009-3.752,0c-.157,0-.194.052-.194.2q.007,2.544,0,5.089c0,.176.067.2.218.2C58.887,24.329,59.5,24.333,60.122,24.333ZM40.033,20.662c0,.516-.02,1.033,0,1.548a2.107,2.107,0,0,0,1.132,1.958,3.108,3.108,0,0,0,1.525.242,2.083,2.083,0,0,0,1.928-1.32,2.875,2.875,0,0,0,.186-1.053q0-1.266,0-2.533c0-.2.086-.464-.036-.589s-.4-.042-.607-.044c-.585-.007-.579,0-.586.576-.011.945.042,1.892-.028,2.836a1.03,1.03,0,0,1-.969,1,1.079,1.079,0,0,1-1.255-.8,1.96,1.96,0,0,1-.075-.531c0-.962,0-1.923,0-2.885,0-.15-.036-.2-.193-.2-.281.012-.563.014-.844,0-.164-.008-.191.058-.189.2C40.038,19.6,40.033,20.13,40.033,20.662Zm-5.554-5.219c.4,0,.759-.005,1.118,0a.189.189,0,0,0,.2-.145c.124-.311.256-.618.374-.93a.2.2,0,0,1,.223-.15c.649.005,1.3.007,1.947,0a.214.214,0,0,1,.236.165c.118.3.251.6.365.909a.2.2,0,0,0,.219.153c.3-.008.61-.011.914,0,.178.007.216-.037.144-.2q-1.1-2.563-2.19-5.131a.215.215,0,0,0-.24-.162,3.867,3.867,0,0,1-.679,0c-.242-.029-.336.083-.421.285-.474,1.134-.961,2.264-1.442,3.4C35,14.219,34.747,14.812,34.479,15.443Zm34.706,8.973a2.43,2.43,0,0,0,1.262-.272,1.582,1.582,0,0,0,.8-1.643,1.358,1.358,0,0,0-.857-1.16,4.905,4.905,0,0,0-.9-.315,4.291,4.291,0,0,1-.862-.285.441.441,0,0,1,.066-.834.981.981,0,0,1,.3-.055,2.344,2.344,0,0,1,1.329.454c.111.071.164.072.236-.041.138-.217.284-.43.44-.635.1-.134.071-.207-.058-.3a3.061,3.061,0,0,0-2.471-.5,1.628,1.628,0,0,0-1.193,2.309,1.592,1.592,0,0,0,1.087.818c.4.138.822.235,1.225.373.368.126.483.295.441.566a.594.594,0,0,1-.6.428c-.023,0-.047,0-.07,0a2.249,2.249,0,0,1-1.552-.55c-.151-.12-.211-.08-.307.046a6.852,6.852,0,0,1-.466.557c-.118.125-.094.191.035.291A3.439,3.439,0,0,0,69.185,24.416Zm-21.506,0a2.834,2.834,0,0,0,.818-.147,1.643,1.643,0,0,0,.745-2.54,2.43,2.43,0,0,0-1.111-.611,8.779,8.779,0,0,1-1.156-.362.444.444,0,0,1,.065-.858,1.755,1.755,0,0,1,1.07.117c.25.08.461.42.7.292s.334-.438.494-.668a.32.32,0,0,1,.026-.039c.095-.1.057-.174-.043-.243a2.893,2.893,0,0,0-.7-.378,2.84,2.84,0,0,0-2.315.044,1.6,1.6,0,0,0-.241,2.635,3.814,3.814,0,0,0,.987.406,5.165,5.165,0,0,1,1.085.358.42.42,0,0,1,.246.417.436.436,0,0,1-.28.4,1.063,1.063,0,0,1-.384.093,2.31,2.31,0,0,1-1.575-.556c-.133-.1-.2-.085-.29.039a7.07,7.07,0,0,1-.48.576c-.109.118-.091.182.03.275A3.574,3.574,0,0,0,47.679,24.416Zm17.111,0a2.26,2.26,0,0,0,1.153-.274,1.582,1.582,0,0,0,.794-1.645,1.359,1.359,0,0,0-.86-1.158,4.947,4.947,0,0,0-.9-.314,3.981,3.981,0,0,1-.882-.3.437.437,0,0,1,.05-.806.973.973,0,0,1,.341-.07,2.339,2.339,0,0,1,1.328.456c.115.075.165.062.235-.047.144-.223.292-.444.452-.655.094-.124.048-.189-.057-.261a2.905,2.905,0,0,0-.677-.366,2.847,2.847,0,0,0-2.315.039,1.6,1.6,0,0,0-.252,2.635,3.818,3.818,0,0,0,.986.409,5.322,5.322,0,0,1,1.085.356.422.422,0,0,1,.25.437.439.439,0,0,1-.294.388,1.118,1.118,0,0,1-.385.087,2.365,2.365,0,0,1-1.591-.58c-.1-.076-.146-.074-.222.022-.163.209-.33.418-.511.611-.122.13-.085.194.04.29A3.515,3.515,0,0,0,64.79,24.417ZM48.008,15.553c.106-.008.161-.016.215-.016a2.693,2.693,0,0,0,1.944-.834c.1-.1.131-.174,0-.281-.143-.121-.267-.263-.4-.4-.25-.25-.25-.25-.521-.036a1.751,1.751,0,0,1-1.441.4,1.65,1.65,0,0,1-1.278-1.959,1.544,1.544,0,0,1,1.672-1.4,1.8,1.8,0,0,1,1.114.489c.126.111.195.1.294-.025a5.462,5.462,0,0,1,.48-.544c.171-.165.127-.266-.037-.4a2.943,2.943,0,0,0-2.462-.616,2.689,2.689,0,0,0-2.362,2.62A2.747,2.747,0,0,0,48.008,15.553ZM42.957,9.886c-.07.006-.14.015-.209.018a2.82,2.82,0,0,0-2.331,4.229,2.669,2.669,0,0,0,2.465,1.418,2.8,2.8,0,0,0,2.095-.821c.122-.12.169-.2.011-.332a2.585,2.585,0,0,1-.413-.414c-.156-.2-.274-.187-.462-.026a1.664,1.664,0,0,1-1.675.374,1.7,1.7,0,0,1-1.011-2.16A1.53,1.53,0,0,1,43,11.032a1.824,1.824,0,0,1,1.159.493c.112.1.179.106.277-.017.165-.207.343-.406.525-.6.118-.125.1-.2-.026-.317A2.878,2.878,0,0,0,42.957,9.886Zm27.529.092c-.673,0-1.346.009-2.018-.005-.223,0-.284.068-.268.279a6.442,6.442,0,0,1,0,.7c0,.135.047.174.177.172.422-.007.845.009,1.267-.007.2-.008.242.055.241.247-.009,1.291,0,2.581-.008,3.872,0,.164.041.217.207.208a6.432,6.432,0,0,1,.774,0c.191.013.249-.039.248-.24-.01-1.275,0-2.55-.011-3.825,0-.225.069-.269.273-.262.406.015.813,0,1.22.007.131,0,.182-.036.177-.171-.008-.25-.015-.5,0-.751.013-.194-.066-.233-.242-.231C71.847,9.984,71.166,9.979,70.486,9.978Zm-4.03,2.73c0,.844,0,1.688,0,2.532,0,.167.046.214.209.206.273-.013.547-.011.82,0,.149.006.2-.034.2-.192-.01-.476,0-.953,0-1.43,0-1.2,0-2.407,0-3.611,0-.178-.047-.228-.221-.218a6.74,6.74,0,0,1-.773,0c-.179-.01-.238.038-.235.228C66.463,11.051,66.456,11.88,66.456,12.708ZM51.391,21.6c0-.836-.006-1.673,0-2.509,0-.19-.055-.238-.235-.228-.265.015-.532.012-.8,0-.152-.007-.2.038-.2.194.009.578,0,1.157,0,1.735,0,1.1,0,2.2,0,3.306,0,.18.051.226.223.216a7.624,7.624,0,0,1,.8,0c.163.008.211-.039.209-.206C51.386,23.275,51.391,22.438,51.391,21.6Z" transform="translate(0)" fill="#016495"/>
  <path id="Path_4816" data-name="Path 4816" d="M77.259,14.878c.143-.007.286.2.234.314a1.107,1.107,0,0,0,.372,1.483c1.235.9,2.468,1.807,3.712,2.7a3.639,3.639,0,0,1,.88,5.232c-.776,1.095-1.573,2.175-2.361,3.261-.062.086-.1.2-.246.083-.107-.088-.171-.135-.082-.3a1.94,1.94,0,0,0-.615-2.635c-1.113-.8-2.248-1.581-3.323-2.434a3.59,3.59,0,0,1-.654-4.847c.65-.926,1.326-1.834,1.991-2.749C77.2,14.945,77.234,14.907,77.259,14.878Z" transform="translate(-62.199 -12.418)" fill="#016495"/>
  <path id="Path_4817" data-name="Path 4817" d="M70.662,73.985a1.561,1.561,0,0,0-.237-.172c-.131-.063-.076-.132-.041-.224a.628.628,0,0,0-.25-.76c-.838-.612-1.681-1.217-2.516-1.833a2.509,2.509,0,0,1-.527-3.551c.409-.552.8-1.113,1.211-1.667.04-.054.077-.2.184-.084.091.1.325.089.239.326a.64.64,0,0,0,.281.83c.815.591,1.633,1.178,2.446,1.773a2.492,2.492,0,0,1,.556,3.559q-.609.845-1.222,1.688C70.755,73.913,70.74,73.972,70.662,73.985Z" transform="translate(-55.573 -54.798)" fill="#016495"/>
  <path id="Path_4818" data-name="Path 4818" d="M115.183,147.754a2.468,2.468,0,0,1,.8.532,1.632,1.632,0,0,1-.591,2.485,3.379,3.379,0,0,1-1.343.263c-.953.007-1.907,0-2.86.006-.176,0-.221-.049-.22-.224q.01-2.918,0-5.837c0-.18.052-.218.223-.216.985.008,1.97-.012,2.954.01a1.915,1.915,0,0,1,1.524.687,1.548,1.548,0,0,1-.222,2.085C115.366,147.614,115.28,147.678,115.183,147.754Zm-1.9,2.082v-.011c.288,0,.577,0,.866,0a1.3,1.3,0,0,0,.23-.035.648.648,0,0,0,.541-.863.665.665,0,0,0-.623-.448,17.417,17.417,0,0,0-1.823-.04c-.122,0-.14.057-.139.158,0,.359.008.718,0,1.077,0,.141.051.169.177.165C112.769,149.831,113.026,149.836,113.284,149.836Zm-.113-2.534a4.167,4.167,0,0,0,.883-.049.633.633,0,0,0-.066-1.26c-.5-.057-1.014-.013-1.52-.025-.129,0-.131.073-.13.166,0,.328.01.656,0,.983-.007.165.059.2.2.188C112.73,147.294,112.926,147.3,113.17,147.3Z" transform="translate(-92.626 -120.83)" fill="#016495"/>
  <path id="Path_4819" data-name="Path 4819" d="M43.351,147.758a3.232,3.232,0,0,1,.582.323,1.6,1.6,0,0,1-.256,2.641,3.07,3.07,0,0,1-1.423.316c-.961.009-1.923,0-2.884.007-.185,0-.215-.062-.215-.229q.008-2.919,0-5.838c0-.16.036-.212.2-.21.985.008,1.97,0,2.954.007a2.1,2.1,0,0,1,1.211.377,1.527,1.527,0,0,1,.032,2.456C43.5,147.655,43.432,147.7,43.351,147.758Zm-1.833,2.082a5.523,5.523,0,0,0,1.019-.046.768.768,0,0,0,.448-.233.641.641,0,0,0,.1-.66.651.651,0,0,0-.577-.414,16.228,16.228,0,0,0-1.872-.043c-.115,0-.122.064-.121.151,0,.367,0,.735,0,1.1,0,.113.038.148.148.146C40.931,149.836,41.2,149.84,41.519,149.84Zm-.2-3.848v-.02c-.211,0-.423.007-.633,0-.134-.006-.174.044-.171.175.008.328.011.657,0,.985-.005.152.051.182.188.179.391-.008.782,0,1.172,0a1.345,1.345,0,0,0,.588-.137.524.524,0,0,0,.308-.485.617.617,0,0,0-.632-.686C41.87,145.974,41.595,145.992,41.322,145.992Z" transform="translate(-32.682 -120.834)" fill="#016495"/>
  <path id="Path_4820" data-name="Path 4820" d="M79.333,147.763c.114.058.209.112.308.157a1.613,1.613,0,0,1,.454,2.474,2.14,2.14,0,0,1-1.449.62c-1.108.077-2.22.017-3.33.034-.137,0-.171-.052-.171-.18q0-2.956,0-5.912c0-.148.047-.183.188-.182,1,.006,2-.005,3,.006a1.8,1.8,0,0,1,1.695,1.044A1.553,1.553,0,0,1,79.333,147.763Zm-1.848,2.083a5.919,5.919,0,0,0,1.044-.046.63.63,0,0,0,.571-.606.648.648,0,0,0-.645-.708c-.606-.078-1.216-.018-1.824-.038-.135,0-.15.069-.149.176,0,.351.006.7,0,1.054,0,.136.049.174.179.17C76.917,149.84,77.175,149.846,77.485,149.846ZM77.318,146v-.02h-.679c-.086,0-.155.012-.154.124,0,.367,0,.734,0,1.1,0,.079.041.111.117.109a10.691,10.691,0,0,0,1.589-.047.622.622,0,0,0,.57-.656.629.629,0,0,0-.625-.606C77.864,145.981,77.59,146,77.318,146Z" transform="translate(-62.721 -120.839)" fill="#016495"/>
  <path id="Path_4821" data-name="Path 4821" d="M62.546,120.005c1.7,0,3.394,0,5.091,0,.179,0,.263.048.3.226a7.467,7.467,0,0,0,.246.824c.062.172.023.216-.153.215-.79-.006-1.58,0-2.369-.008a.269.269,0,0,0-.32.238c-.123.457-.277.9-.41,1.359a.2.2,0,0,1-.227.167q-2.158-.008-4.317,0c-.151,0-.2-.063-.236-.188-.138-.462-.291-.919-.42-1.383a.224.224,0,0,0-.263-.191c-.8.005-1.6,0-2.393.007-.206,0-.232-.059-.171-.237.093-.271.177-.547.249-.825a.234.234,0,0,1,.274-.206c.876.009,1.752,0,2.627,0Z" transform="translate(-47.476 -100.162)" fill="#016495"/>
  <path id="Path_4822" data-name="Path 4822" d="M146.88,179.3c-.093-.212-.019-.374-.083-.535-.107.088-.091.226-.151.326-.03.05-.017.138-.1.136s-.048-.087-.073-.131c-.055-.1-.049-.223-.142-.33-.054.159.019.321-.086.5a1.9,1.9,0,0,1,.011-.627c0-.039.016-.08.069-.073s.063.036.077.077c.047.139.1.278.161.454.065-.176.118-.317.169-.458a.1.1,0,0,1,.081-.074.053.053,0,0,1,.061.054A2.024,2.024,0,0,1,146.88,179.3Z" transform="translate(-122.045 -149.039)" fill="#016495"/>
  <path id="Path_4823" data-name="Path 4823" d="M143.448,178.517a.811.811,0,0,1-.118.023c-.078,0-.164-.02-.182.091s.073.122.142.154c.132.062.209.166.125.3a.239.239,0,0,1-.36.058c.038-.061.078-.035.112-.035.078,0,.167.015.186-.089s-.055-.134-.132-.164c-.121-.047-.216-.131-.156-.266S143.254,178.448,143.448,178.517Z" transform="translate(-119.397 -148.967)" fill="#016495"/>
  <path id="Path_4824" data-name="Path 4824" d="M219.459,134.6c-.242,0-.484-.005-.725,0-.123,0-.162-.04-.159-.161.007-.3.005-.593,0-.889,0-.1.026-.141.131-.138a11.561,11.561,0,0,1,1.61.05.55.55,0,0,1,.431.848.641.641,0,0,1-.542.273c-.249.015-.5,0-.748,0Z" transform="translate(-182.439 -111.353)" fill="#016495"/>
  <path id="Path_4825" data-name="Path 4825" d="M219.3,121.689c-.187,0-.375,0-.562,0-.116,0-.169-.026-.165-.155.008-.265.006-.531,0-.8,0-.107.027-.155.143-.153.414.008.828,0,1.241.016a.552.552,0,0,1,.544.4.537.537,0,0,1-.546.674c-.217.018-.437,0-.655,0Z" transform="translate(-182.438 -100.651)" fill="#016495"/>
  <path id="Path_4826" data-name="Path 4826" d="M314.534,67.878c0-.2,0-.407,0-.61,0-.1.016-.164.138-.16.429.015.86-.031,1.288.026a.722.722,0,0,1,.685.729.745.745,0,0,1-.658.733,9.742,9.742,0,0,1-1.334.042c-.119,0-.118-.067-.118-.15C314.536,68.285,314.534,68.081,314.534,67.878Z" transform="translate(-262.533 -56.011)" fill="#016495"/>
  <path id="Path_4827" data-name="Path 4827" d="M375,68.707c0-.476,0-.952,0-1.429,0-.08-.029-.185.111-.181a5.654,5.654,0,0,1,1.236.051,1.565,1.565,0,0,1,1.185,1.77A1.532,1.532,0,0,1,376,70.336c-.28.016-.562,0-.843.007-.144,0-.164-.062-.163-.183C375,69.676,375,69.192,375,68.707Z" transform="translate(-313 -55.998)" fill="#016495"/>
  <path id="Path_4828" data-name="Path 4828" d="M479.173,68.718c0-.484,0-.968,0-1.452,0-.073-.025-.171.1-.168a5.486,5.486,0,0,1,1.259.054,1.568,1.568,0,0,1,1.172,1.779,1.537,1.537,0,0,1-1.564,1.407c-.257.01-.515,0-.773,0-.149.006-.2-.037-.2-.2C479.18,69.671,479.173,69.194,479.173,68.718Z" transform="translate(-399.951 -55.997)" fill="#016495"/>
  <path id="Path_4829" data-name="Path 4829" d="M222.7,69.179l.7,1.706c-.439,0-.85,0-1.26,0-.129,0-.115-.05-.077-.143C222.271,70.242,222.473,69.739,222.7,69.179Z" transform="translate(-185.328 -57.742)" fill="#016495"/>
</svg>
